<svg width="28" height="28" viewBox="0 0 28 28" fill="none" xmlns="http://www.w3.org/2000/svg">
<g id="healthicons:ui-user-profile-outline">
<g id="Group">
<path id="Vector" fill-rule="evenodd" clip-rule="evenodd" d="M8.63866 20.2499C12.6316 19.6665 15.3808 19.7167 19.379 20.2703C19.6685 20.3122 19.9331 20.4576 20.1239 20.6794C20.3146 20.9013 20.4186 21.1846 20.4167 21.4772C20.4167 21.7572 20.3205 22.029 20.1467 22.2414C19.8437 22.6116 19.5333 22.9756 19.2157 23.3334H20.7562C20.8531 23.2179 20.9505 23.1 21.0491 22.9804C21.3951 22.5561 21.5839 22.0253 21.5834 21.4778C21.5834 20.2965 20.7212 19.2786 19.5388 19.1153C15.4462 18.5489 12.5855 18.4946 8.47008 19.096C7.27541 19.2704 6.41675 20.3041 6.41675 21.4935C6.41675 22.0214 6.58883 22.5435 6.91491 22.9664C7.01116 23.0913 7.10625 23.2138 7.20075 23.3339H8.704C8.40849 22.9802 8.12027 22.6204 7.8395 22.2548C7.67264 22.0359 7.58263 21.7681 7.58341 21.4929C7.58341 20.8647 8.03491 20.3379 8.63866 20.2499ZM14.0001 14.5834C14.4597 14.5834 14.9148 14.4928 15.3395 14.3169C15.7641 14.141 16.15 13.8832 16.475 13.5582C16.8 13.2332 17.0578 12.8474 17.2337 12.4227C17.4096 11.9981 17.5001 11.543 17.5001 11.0834C17.5001 10.6237 17.4096 10.1686 17.2337 9.74396C17.0578 9.31932 16.8 8.93349 16.475 8.60848C16.15 8.28347 15.7641 8.02567 15.3395 7.84978C14.9148 7.67388 14.4597 7.58335 14.0001 7.58335C13.0718 7.58335 12.1816 7.9521 11.5252 8.60848C10.8688 9.26486 10.5001 10.1551 10.5001 11.0834C10.5001 12.0116 10.8688 12.9019 11.5252 13.5582C12.1816 14.2146 13.0718 14.5834 14.0001 14.5834ZM14.0001 15.75C15.2378 15.75 16.4247 15.2584 17.2999 14.3832C18.1751 13.508 18.6667 12.321 18.6667 11.0834C18.6667 9.84568 18.1751 8.65869 17.2999 7.78352C16.4247 6.90835 15.2378 6.41669 14.0001 6.41669C12.7624 6.41669 11.5754 6.90835 10.7002 7.78352C9.82508 8.65869 9.33341 9.84568 9.33341 11.0834C9.33341 12.321 9.82508 13.508 10.7002 14.3832C11.5754 15.2584 12.7624 15.75 14.0001 15.75Z" fill="#9D9CA1"/>
<path id="Vector_2" fill-rule="evenodd" clip-rule="evenodd" d="M14 24.5C19.799 24.5 24.5 19.7989 24.5 14C24.5 8.20109 19.799 3.50001 14 3.50001C8.20112 3.50001 3.50004 8.20109 3.50004 14C3.50004 19.7989 8.20112 24.5 14 24.5ZM14 25.6667C20.4435 25.6667 25.6667 20.4435 25.6667 14C25.6667 7.55651 20.4435 2.33334 14 2.33334C7.55654 2.33334 2.33337 7.55651 2.33337 14C2.33337 20.4435 7.55654 25.6667 14 25.6667Z" fill="#9D9CA1"/>
</g>
</g>
</svg>
