<svg width="22" height="20" viewBox="0 0 22 20" fill="none" xmlns="http://www.w3.org/2000/svg">
<path id="Vector" d="M8.55556 0H1.22222C0.898069 0 0.587192 0.117063 0.357981 0.325437C0.128769 0.533811 0 0.816426 0 1.11111V7.77778C0 8.07246 0.128769 8.35508 0.357981 8.56345C0.587192 8.77183 0.898069 8.88889 1.22222 8.88889H8.55556C8.87971 8.88889 9.19059 8.77183 9.4198 8.56345C9.64901 8.35508 9.77778 8.07246 9.77778 7.77778V1.11111C9.77778 0.816426 9.64901 0.533811 9.4198 0.325437C9.19059 0.117063 8.87971 0 8.55556 0ZM7.33333 6.66667H2.44444V2.22222H7.33333V6.66667ZM20.7778 0H13.4444C13.1203 0 12.8094 0.117063 12.5802 0.325437C12.351 0.533811 12.2222 0.816426 12.2222 1.11111V7.77778C12.2222 8.07246 12.351 8.35508 12.5802 8.56345C12.8094 8.77183 13.1203 8.88889 13.4444 8.88889H20.7778C21.1019 8.88889 21.4128 8.77183 21.642 8.56345C21.8712 8.35508 22 8.07246 22 7.77778V1.11111C22 0.816426 21.8712 0.533811 21.642 0.325437C21.4128 0.117063 21.1019 0 20.7778 0ZM19.5556 6.66667H14.6667V2.22222H19.5556V6.66667ZM8.55556 11.1111H1.22222C0.898069 11.1111 0.587192 11.2282 0.357981 11.4365C0.128769 11.6449 0 11.9275 0 12.2222V18.8889C0 19.1836 0.128769 19.4662 0.357981 19.6746C0.587192 19.8829 0.898069 20 1.22222 20H8.55556C8.87971 20 9.19059 19.8829 9.4198 19.6746C9.64901 19.4662 9.77778 19.1836 9.77778 18.8889V12.2222C9.77778 11.9275 9.64901 11.6449 9.4198 11.4365C9.19059 11.2282 8.87971 11.1111 8.55556 11.1111ZM7.33333 17.7778H2.44444V13.3333H7.33333V17.7778ZM17.1111 11.1111C14.4149 11.1111 12.2222 13.1044 12.2222 15.5556C12.2222 18.0067 14.4149 20 17.1111 20C19.8073 20 22 18.0067 22 15.5556C22 13.1044 19.8073 11.1111 17.1111 11.1111ZM17.1111 17.7778C15.763 17.7778 14.6667 16.7811 14.6667 15.5556C14.6667 14.33 15.763 13.3333 17.1111 13.3333C18.4592 13.3333 19.5556 14.33 19.5556 15.5556C19.5556 16.7811 18.4592 17.7778 17.1111 17.7778Z" fill="#9D9CA1"/>
</svg>
